<svg width="114" height="114" viewBox="0 0 114 114" fill="none" xmlns="http://www.w3.org/2000/svg">
<path fill-rule="evenodd" clip-rule="evenodd" d="M107.893 81.6954C108.375 80.6838 108.823 79.6623 109.238 78.6324L100.701 69.4802C100.395 70.6137 100.044 71.7392 99.6464 72.8536L107.893 81.6954ZM98.416 75.9324C97.9468 76.9896 97.4335 78.0342 96.8755 79.0635L104.71 87.4633C105.32 86.4992 105.897 85.5224 106.439 84.5345L98.416 75.9324ZM93.6359 66.4097L93.6243 61.8926L77.0168 44.0872L72.795 44.0655L93.6359 66.4097ZM58.3309 28.558L60.5048 26.3842L52.9974 18.3352L50.8235 20.5091L58.3309 28.558ZM48.7011 22.6315L56.2085 30.6804L53.9004 32.9885L46.393 24.9396L48.7011 22.6315ZM43.5913 12.7552C44.7435 12.4282 45.8872 12.1528 47.0174 11.9239L38.4999 2.79203C37.4533 3.13212 36.4031 3.50777 35.3518 3.92138L43.5913 12.7552ZM32.4191 5.17498L40.441 13.7755C39.3674 14.1675 38.2906 14.6074 37.2146 15.0991L29.3785 6.69776C30.3897 6.15129 31.4039 5.64441 32.4191 5.17498ZM68.6732 44.0442L78.9829 55.0975L74.5004 55.0744L64.1908 44.0211L68.6732 44.0442ZM82.6167 58.9935L93.6473 70.8197L93.6597 75.6157L82.6291 63.7894L82.6167 58.9935ZM112.894 64.2182C112.744 65.5139 112.549 66.807 112.309 68.095L102.269 57.3315C102.261 55.7276 102.171 54.127 101.999 52.5372L112.894 64.2182ZM101.504 65.9432C101.774 64.4843 101.972 63.0168 102.099 61.5467L111.524 71.6511C111.196 72.9354 110.821 74.2121 110.398 75.4787L101.504 65.9432ZM93.2056 47.614C92.6948 46.3288 91.7135 45.2816 90.474 44.6853L93.2056 47.614ZM93.5998 52.4345L85.8567 44.1328L81.1386 44.1085L93.6129 57.4825L93.5998 52.4345ZM69.3528 17.5361L67.179 19.71L59.6715 11.6611L60.204 11.1286C59.8433 11.1 59.4772 11.0753 59.106 11.0547L49.1989 0.432978C50.5147 0.272108 51.8098 0.159059 53.0788 0.0882865L69.3528 17.5361ZM65.0566 21.8324L57.5492 13.7834L55.1198 16.2128L62.6272 24.2618L65.0566 21.8324ZM45.6121 0.985356L54.9582 11.0056C53.543 11.0501 52.0787 11.1586 50.5787 11.3442L41.7239 1.85074C43.0311 1.51126 44.3287 1.22439 45.6121 0.985356ZM113.217 55.1326C113.29 56.8066 113.29 58.4864 113.217 60.1662L101.107 47.1832C100.516 44.5713 99.7035 42.0136 98.6787 39.5455L113.217 55.1326ZM73.9046 12.9844L71.4752 15.4138L57.0985 0C58.8164 0.0202216 60.4693 0.11404 62.0414 0.265424L73.9046 12.9844ZM109.984 38.3663C108.942 35.3927 107.659 32.5068 106.145 29.7461L92.9836 15.6349C91.8428 15.6199 90.6982 15.9578 89.7275 16.6484L109.984 38.3663ZM72.2235 2.27962L76.7949 7.18079C76.9343 8.44523 76.6299 9.71441 75.9441 10.7731L66.7569 0.923253C68.8125 1.30329 70.6521 1.77298 72.2235 2.27962ZM87.8339 19.0161L111.817 44.7289C112.234 46.5635 112.564 48.42 112.803 50.2905L88.1048 23.811C87.2814 22.3342 87.1911 20.5584 87.8339 19.0161ZM102.992 90.0187C102.392 90.8592 101.765 91.6886 101.11 92.5058L82.6522 72.7165L82.6405 68.1995L93.6711 80.0258L93.6817 84.1092C94.2459 83.3378 94.7813 82.5541 95.288 81.7593L102.992 90.0187ZM70.0952 68.6857C71.3001 67.9225 72.7369 67.6734 74.0933 67.9381L99.1591 94.812C98.4356 95.6228 97.6829 96.4198 96.9007 97.202L96.7931 97.3093L70.0952 68.6857ZM67.8817 70.7104L94.6113 99.368C93.8363 100.061 93.0531 100.723 92.263 101.355L84.7317 93.2803C84.8437 93.1943 84.9555 93.1075 85.0672 93.02C84.7972 92.8335 84.5415 92.621 84.3039 92.3834L78.2291 86.3087L65.7079 72.8842L67.8817 70.7104ZM82.2702 95.0391L89.8565 103.173C88.8979 103.856 87.9316 104.498 86.9599 105.101L79.272 96.8587C80.2784 96.302 81.2791 95.6966 82.2702 95.0391ZM63.5855 75.0066L71.0929 83.0556L68.6635 85.485L61.1561 77.4361L63.5855 75.0066ZM63.3973 69.1986H62.2703L43.6462 49.2312C43.6709 48.5877 43.809 47.9426 44.0664 47.3258C44.2667 46.8457 44.53 46.4049 44.8444 46.0113L65.9067 68.5929C65.1456 68.9833 64.289 69.1986 63.3973 69.1986ZM58.1683 69.1986L47.9083 58.1986H43.2129L53.4729 69.1986H58.1683ZM42.9139 43.9416C42.0261 44.6789 40.9609 45.0937 39.8733 45.1862L14.6746 18.1699C15.1822 17.6221 15.7043 17.0796 16.2412 16.5426C16.4346 16.3492 16.6285 16.1579 16.8229 15.9687L42.9139 43.9416ZM30.0206 39.0206L12.6841 20.4336C11.9335 21.334 11.2196 22.2467 10.5416 23.1707L18.2288 31.4123C18.4711 31.0437 18.72 30.6772 18.9756 30.3129L18.9854 32.2236L30.0467 44.0827L30.0206 39.0206ZM81.4497 108.096C82.4018 107.647 83.353 107.165 84.3012 106.649L76.4879 98.2717C75.4826 98.7378 74.4751 99.1592 73.4688 99.5393L81.4497 108.096ZM78.5352 109.369C77.3644 109.841 76.1957 110.266 75.0331 110.648L66.551 101.554C67.8034 101.29 69.0716 100.972 70.3482 100.591L78.5352 109.369ZM68.3716 112.409C69.5084 112.178 70.6593 111.91 71.8204 111.602L63.0193 102.166C61.8382 102.327 60.6789 102.443 59.5483 102.52C59.422 102.528 59.2961 102.536 59.1707 102.544L68.3716 112.409ZM64.8377 113.018L55.1507 102.632C53.9304 102.611 52.7737 102.548 51.6941 102.454L53.3968 100.752L45.8894 92.7027L43.7156 94.8765L61.0302 113.44C62.269 113.341 63.5405 113.202 64.8377 113.018ZM57.1055 113.63C55.6215 113.656 54.1943 113.628 52.8364 113.558L39.4193 99.1728L41.5932 96.9989L57.1055 113.63ZM24.2202 89.8254C21.2242 86.8294 18.5965 83.1378 16.4905 78.988L0.272462 61.6C0.462966 63.608 0.751079 65.5957 1.12955 67.553L25.8223 94.0268C25.9076 92.5171 25.3736 90.9788 24.2202 89.8254ZM24.6298 97.1462L2.58387 73.51C3.33902 76.0614 4.24627 78.5376 5.28758 80.9132L22.0895 98.9271C22.8682 98.6651 23.5998 98.2239 24.2202 97.6036C24.3667 97.457 24.5033 97.3043 24.6298 97.1462ZM17.5562 98.4647L12.1365 92.6541C13.49 94.435 14.9299 96.0914 16.442 97.6036C16.7833 97.9448 17.1583 98.2319 17.5562 98.4647ZM35.5104 104.414L42.6402 112.058C43.6611 112.332 44.8064 112.585 46.0488 112.804C46.7767 112.932 47.5484 113.051 48.36 113.156L37.297 101.295L37.0214 101.571C36.2148 102.377 35.7111 103.372 35.5104 104.414ZM11.8339 65.093C12.2135 67.1787 12.7191 69.2243 13.3385 71.2107L0.00914524 56.9198C-0.0164709 55.4545 0.0115117 53.9827 0.0958055 52.5082L11.8339 65.093ZM11.1681 59.9813C11.0465 58.4376 10.9958 56.881 11.0206 55.3187L1.08858 44.6703C0.835197 45.9465 0.627752 47.2258 0.464478 48.5056L11.1681 59.9813ZM55.5192 98.6292L48.0118 90.5803L50.1857 88.4065L57.6931 96.4554L55.5192 98.6292ZM28.0687 69.1986H32.2701L19.1033 55.0821L19.1266 59.6116L28.0687 69.1986ZM11.2648 51.1826C11.3986 49.8826 11.5872 48.5829 11.8333 47.2877L2.93808 37.7509C2.5555 38.8786 2.2125 40.0125 1.90779 41.1507L11.2648 51.1826ZM23.9225 69.1512L19.1584 64.0435C19.3217 66.6798 21.3407 68.8111 23.9225 69.1512ZM52.308 86.2841L59.8155 94.333L62.2449 91.9036L54.7375 83.8547L52.308 86.2841ZM41.0675 69.1986H36.3721L19.0805 50.6598L19.0544 45.5977L30.1157 57.4568L30.1195 58.1986H30.8076L41.0675 69.1986ZM13.8584 40.0269C13.3967 41.2626 12.9946 42.51 12.6497 43.7651L4.1129 34.6125C4.58047 33.4732 5.09062 32.342 5.64471 31.2207L13.8584 40.0269ZM56.8599 81.7323L64.3673 89.7812L66.5411 87.6074L59.0337 79.5585L56.8599 81.7323ZM45.1695 69.1986L34.9095 58.1986H39.1109L49.3709 69.1986H45.1695ZM30.0929 53.0345L30.0695 48.505L19.0082 36.6459L19.0316 41.1754L30.0929 53.0345ZM15.1268 36.9889C15.5811 36.0078 16.0756 35.0364 16.6118 34.0766L8.79494 25.6959C8.20961 26.595 7.65616 27.5032 7.13383 28.4194L15.1268 36.9889ZM68.1017 66.5484C68.2446 66.3124 68.3708 66.0636 68.4786 65.8034C68.9738 64.6079 69.0217 63.3074 68.6656 62.1189L51.7255 43.9569L49.1706 43.9437C48.525 43.9404 47.8973 44.05 47.3105 44.2574L68.1017 66.5484ZM45.0524 41.8365L47.4818 39.4071L39.9744 31.3582L39.4047 31.9279L28.3361 20.8593C28.2682 20.7913 28.1988 20.7255 28.128 20.6617C28.4901 20.3757 28.8537 20.0974 29.2186 19.8266L21.6732 11.7369C20.7827 12.4305 19.8992 13.1613 19.0243 13.9309L45.0524 41.8365ZM70.3786 55.0532L66.1569 55.0314L55.8473 43.9781L60.069 43.9999L70.3786 55.0532ZM51.778 35.1109L49.6042 37.2847L42.0968 29.2358L44.2706 27.062L51.778 35.1109ZM34.4183 16.499C33.5126 16.9933 32.61 17.5272 31.713 18.1031L24.1044 9.94558C24.969 9.34376 25.8388 8.77475 26.7123 8.23714L34.4183 16.499ZM43.9798 100.935C43.9106 100.902 43.9233 100.903 43.993 100.941L43.9798 100.935Z" fill="url(#paint0_linear)"/>
<defs>
<linearGradient id="paint0_linear" x1="56.6359" y1="0" x2="56.6359" y2="113.639" gradientUnits="userSpaceOnUse">
<stop offset="0.191945" stop-color="#120C5A"/>
<stop offset="0.805939" stop-color="#DD0D25"/>
</linearGradient>
</defs>
</svg>
