<svg width="100" height="100" viewBox="0 0 100 100" fill="none" xmlns="http://www.w3.org/2000/svg">
<g clip-path="url(#clip0)">
<path fill-rule="evenodd" clip-rule="evenodd" d="M67.8989 59.0539C67.7544 58.2714 67.8519 57.4643 68.1789 56.7367C68.4904 56.0233 69.0074 55.4148 69.6665 54.9862C70.3256 54.5576 71.0979 54.3276 71.8884 54.3245H72.1095C73.4126 54.3245 74.6623 53.8162 75.5837 52.9115C76.5051 52.0067 77.0228 50.7796 77.0228 49.5001C77.0228 48.2205 76.5051 46.9934 75.5837 46.0887C74.6623 45.1839 73.4126 44.6756 72.1095 44.6756H71.6919C70.9014 44.6725 70.1291 44.4425 69.47 44.0139C68.8109 43.5853 68.2938 42.9768 67.9824 42.2634V42.0704C67.6554 41.3428 67.5579 40.5358 67.7024 39.7532C67.8469 38.9707 68.2268 38.2487 68.7931 37.6802L68.9405 37.5354C69.3973 37.0874 69.7597 36.5553 70.007 35.9696C70.2542 35.3839 70.3815 34.7561 70.3815 34.1221C70.3815 33.4881 70.2542 32.8603 70.007 32.2746C69.7597 31.689 69.3973 31.1569 68.9405 30.7088C68.4842 30.2603 67.9423 29.9044 67.3459 29.6616C66.7494 29.4188 66.1101 29.2939 65.4644 29.2939C64.8187 29.2939 64.1794 29.4188 63.5829 29.6616C62.9865 29.9044 62.4446 30.2603 61.9883 30.7088L61.8409 30.8536C61.2619 31.4097 60.5266 31.7827 59.7297 31.9246C58.9327 32.0665 58.1108 31.9707 57.3699 31.6496C56.6433 31.3438 56.0236 30.8361 55.5871 30.1889C55.1506 29.5417 54.9164 28.7833 54.9132 28.0071V27.79C54.9132 26.5105 54.3956 25.2834 53.4742 24.3786C52.5528 23.4739 51.3031 22.9656 50 22.9656C48.697 22.9656 47.4473 23.4739 46.5259 24.3786C45.6044 25.2834 45.0868 26.5105 45.0868 27.79V28.2001C45.0836 28.9763 44.8494 29.7347 44.4129 30.3819C43.9765 31.0291 43.3568 31.5368 42.6302 31.8426H42.4337C41.6927 32.1637 40.8708 32.2595 40.0739 32.1176C39.277 31.9757 38.5416 31.6026 37.9626 31.0465L37.8152 30.9018C37.3589 30.4532 36.8171 30.0974 36.2206 29.8546C35.6241 29.6118 34.9848 29.4869 34.3391 29.4869C33.6934 29.4869 33.0541 29.6118 32.4577 29.8546C31.8612 30.0974 31.3193 30.4532 30.863 30.9018C30.4062 31.3499 30.0438 31.8819 29.7966 32.4676C29.5493 33.0533 29.422 33.6811 29.422 34.3151C29.422 34.9491 29.5493 35.5769 29.7966 36.1626C30.0438 36.7483 30.4062 37.2803 30.863 37.7284L31.0104 37.8731C31.5768 38.4416 31.9567 39.1637 32.1012 39.9462C32.2457 40.7287 32.1481 41.5358 31.8211 42.2634C31.5403 43.0129 31.0364 43.6622 30.3749 44.1269C29.7133 44.5915 28.9247 44.8499 28.1116 44.8686H27.8905C26.5875 44.8686 25.3378 45.3769 24.4163 46.2816C23.4949 47.1864 22.9773 48.4135 22.9773 49.693C22.9773 50.9726 23.4949 52.1997 24.4163 53.1044C25.3378 54.0092 26.5875 54.5175 27.8905 54.5175H28.3081C29.0986 54.5206 29.871 54.7506 30.5301 55.1792C31.1891 55.6078 31.7062 56.2163 32.0176 56.9297C32.3446 57.6573 32.4422 58.4644 32.2977 59.2469C32.1532 60.0294 31.7733 60.7515 31.2069 61.32L31.0595 61.4647C30.6027 61.9128 30.2403 62.4448 29.9931 63.0305C29.7458 63.6162 29.6186 64.244 29.6186 64.878C29.6186 65.512 29.7458 66.1398 29.9931 66.7255C30.2403 67.3112 30.6027 67.8432 31.0595 68.2913C31.5159 68.7399 32.0577 69.0957 32.6542 69.3385C33.2506 69.5813 33.89 69.7062 34.5357 69.7062C35.1813 69.7062 35.8207 69.5813 36.4171 69.3385C37.0136 69.0957 37.5555 68.7399 38.0118 68.2913L38.1592 68.1466C38.7381 67.5905 39.4735 67.2174 40.2704 67.0755C41.0673 66.9336 41.8892 67.0294 42.6302 67.3505C43.3935 67.6262 44.0548 68.121 44.5279 68.7706C45.0011 69.4202 45.2643 70.1946 45.2833 70.993V71.2101C45.2833 72.4896 45.801 73.7167 46.7224 74.6215C47.6438 75.5263 48.8935 76.0345 50.1966 76.0345C51.4996 76.0345 52.7493 75.5263 53.6707 74.6215C54.5921 73.7167 55.1098 72.4896 55.1098 71.2101V70.8C55.1129 70.0238 55.3472 69.2654 55.7836 68.6182C56.2201 67.9711 56.8398 67.4633 57.5664 67.1576C58.3073 66.8365 59.1293 66.7407 59.9262 66.8826C60.7231 67.0244 61.4584 67.3975 62.0374 67.9536L62.1848 68.0983C62.6411 68.5469 63.183 68.9027 63.7794 69.1455C64.3759 69.3883 65.0152 69.5133 65.6609 69.5133C66.3066 69.5133 66.9459 69.3883 67.5424 69.1455C68.1388 68.9027 68.6807 68.5469 69.137 68.0983C69.5938 67.6503 69.9562 67.1182 70.2035 66.5325C70.4507 65.9468 70.578 65.319 70.578 64.685C70.578 64.051 70.4507 63.4232 70.2035 62.8375C69.9562 62.2519 69.5938 61.7198 69.137 61.2717L68.9896 61.127C68.4233 60.5585 68.0434 59.8364 67.8989 59.0539ZM57.4546 49.5001C57.4546 53.3566 54.1171 56.4829 50 56.4829C45.883 56.4829 42.5455 53.3566 42.5455 49.5001C42.5455 45.6436 45.883 42.5173 50 42.5173C54.1171 42.5173 57.4546 45.6436 57.4546 49.5001Z" fill="#CA0B03"/>
<path d="M46.2727 19.2413L51.8636 13.6551L46.2727 8.06885" stroke="#CA0B03" stroke-width="2" stroke-linecap="round" stroke-linejoin="round"/>
<path d="M53.7273 91.8621L48.1364 86.2759L53.7273 80.6897" stroke="#CA0B03" stroke-width="2" stroke-linecap="round" stroke-linejoin="round"/>
</g>
<path d="M86 50C86 69.8823 69.8823 86 50 86M14 50C14 30.1178 30.1178 14 50 14" stroke="#CA0B03" stroke-width="2" stroke-linecap="round"/>
<defs>
<clipPath id="clip0">
</clipPath>
</defs>
</svg>
