<svg width="114" height="114" viewBox="0 0 114 114" fill="none" xmlns="http://www.w3.org/2000/svg">
<path fill-rule="evenodd" clip-rule="evenodd" d="M107.893 81.6952C108.375 80.6836 108.823 79.6621 109.238 78.6322L100.701 69.48C100.396 70.6135 100.044 71.739 99.6464 72.8534L107.893 81.6952ZM98.4161 75.9322C97.9469 76.9895 97.4336 78.034 96.8756 79.0633L104.71 87.4632C105.32 86.499 105.897 85.5222 106.439 84.5343L98.4161 75.9322ZM93.6359 66.4094L93.6243 61.8923L77.0171 44.0873L72.7953 44.0655L93.6359 66.4094ZM58.331 28.5579L60.5049 26.384L52.9975 18.3351L50.8236 20.509L58.331 28.5579ZM48.7012 22.6313L56.2087 30.6803L53.9006 32.9884L46.3932 24.9394L48.7012 22.6313ZM43.5915 12.7552C44.7437 12.4282 45.8874 12.1527 47.0176 11.9238L38.5001 2.79196C37.4535 3.13205 36.4033 3.50771 35.352 3.92131L43.5915 12.7552ZM32.4192 5.1749L40.4412 13.7755C39.3675 14.1675 38.2907 14.6073 37.2148 15.099L29.3787 6.69767C30.3898 6.1512 31.4041 5.64433 32.4192 5.1749ZM68.6735 44.0442L78.9831 55.0975L74.5007 55.0744L64.191 44.0211L68.6735 44.0442ZM82.6167 58.9932L93.6473 70.8195L93.6597 75.6154L82.6291 63.7892L82.6167 58.9932ZM112.894 64.2179C112.744 65.5136 112.549 66.8068 112.309 68.0948L102.269 57.3313C102.261 55.7274 102.171 54.1268 101.999 52.5369L112.894 64.2179ZM101.504 65.943C101.774 64.484 101.972 63.0166 102.099 61.5465L111.524 71.6509C111.196 72.9352 110.821 74.2119 110.398 75.4785L101.504 65.943ZM93.2054 47.6136C92.6946 46.3287 91.7136 45.2818 90.4744 44.6855L93.2054 47.6136ZM93.5998 52.4342L85.8569 44.1328L81.1389 44.1085L93.6129 57.4822L93.5998 52.4342ZM69.3529 17.536L67.1791 19.7099L59.6717 11.6609L60.204 11.1286C59.8434 11.1001 59.4774 11.0753 59.1063 11.0547L49.1991 0.432952C50.5149 0.272085 51.81 0.159042 53.0791 0.0882737L69.3529 17.536ZM65.0567 21.8322L57.5493 13.7833L55.1199 16.2127L62.6273 24.2616L65.0567 21.8322ZM45.6123 0.985317L54.9585 11.0056C53.5432 11.0501 52.079 11.1586 50.5789 11.3442L41.7241 1.85069C43.0313 1.51121 44.3289 1.22435 45.6123 0.985317ZM113.217 55.1323C113.29 56.8064 113.29 58.4861 113.217 60.1659L101.107 47.1828C100.516 44.5709 99.7033 42.0131 98.6785 39.545L113.217 55.1323ZM73.9047 12.9842L71.4753 15.4136L57.0987 0C58.8167 0.0202318 60.4696 0.114058 62.0416 0.26545L73.9047 12.9842ZM109.984 38.3659C108.941 35.3922 107.658 32.5062 106.145 29.7455L92.9839 15.6349C91.843 15.6199 90.6984 15.9577 89.7277 16.6483L109.984 38.3659ZM72.2238 2.27973L76.7949 7.1805C76.9343 8.44497 76.63 9.7142 75.9442 10.773L66.7572 0.923309C68.8129 1.30336 70.6525 1.77307 72.2238 2.27973ZM87.834 19.0159L111.817 44.7286C112.234 46.5632 112.564 48.4197 112.803 50.2902L88.1044 23.8103C87.2813 22.3336 87.1912 20.5581 87.834 19.0159ZM102.992 90.0186C102.392 90.859 101.765 91.6884 101.11 92.5057L82.6522 72.7163L82.6405 68.1993L93.6711 80.0255L93.6817 84.1092C94.246 83.3378 94.7813 82.554 95.2881 81.7592L102.992 90.0186ZM70.0954 68.6856C71.3003 67.9225 72.7372 67.6733 74.0936 67.9382L99.1592 94.8119C98.4357 95.6227 97.6829 96.4197 96.9007 97.202L96.7932 97.3092L70.0954 68.6856ZM67.8819 70.7103L94.6114 99.3679C93.8364 100.061 93.0532 100.723 92.2631 101.355L84.7319 93.2802C84.8438 93.1942 84.9556 93.1075 85.0672 93.02C84.7972 92.8335 84.5415 92.621 84.3039 92.3834L78.2328 86.3123L65.708 72.8841L67.8819 70.7103ZM82.2704 95.039L89.8567 103.173C88.8981 103.856 87.9318 104.498 86.96 105.101L79.2721 96.8586C80.2786 96.3019 81.2792 95.6965 82.2704 95.039ZM63.5856 75.0065L71.093 83.0554L68.6636 85.4849L61.1562 77.4359L63.5856 75.0065ZM63.3973 69.1986H62.2705L43.6462 49.2309C43.671 48.5875 43.8091 47.9425 44.0664 47.3258C44.2667 46.8456 44.5301 46.4048 44.8445 46.0112L65.9068 68.5928C65.1457 68.9833 64.2891 69.1986 63.3973 69.1986ZM58.1685 69.1986L47.9086 58.1986H43.2132L53.4731 69.1986H58.1685ZM42.914 43.9415C42.0263 44.6788 40.9611 45.0937 39.8736 45.1862L14.6748 18.1697C15.1822 17.622 15.7043 17.0795 16.2412 16.5426C16.4347 16.3492 16.6286 16.1578 16.8231 15.9685L42.914 43.9415ZM30.0206 39.0204L12.6843 20.4335C11.9336 21.3338 11.2197 22.2466 10.5417 23.1706L18.2289 31.4122C18.4711 31.0436 18.72 30.6771 18.9756 30.3129L18.9854 32.2233L30.0467 44.0825L30.0206 39.0204ZM81.4499 108.096C82.402 107.647 83.3532 107.165 84.3014 106.649L76.488 98.2716C75.4828 98.7377 74.4752 99.1591 73.469 99.5392L81.4499 108.096ZM78.5354 109.369C77.3646 109.841 76.1959 110.266 75.0333 110.648L66.5512 101.554C67.8036 101.29 69.0718 100.972 70.3484 100.591L78.5354 109.369ZM68.3718 112.409C69.5086 112.178 70.6595 111.91 71.8206 111.602L63.0195 102.166C61.8384 102.327 60.679 102.443 59.5483 102.52C59.4221 102.528 59.2963 102.536 59.1709 102.544L68.3718 112.409ZM64.838 113.018L55.1509 102.632C53.9306 102.611 52.7738 102.548 51.6941 102.454L53.397 100.752L45.8896 92.7026L43.7157 94.8764L61.0304 113.44C62.2692 113.341 63.5407 113.202 64.838 113.018ZM57.1058 113.63C55.6218 113.656 54.1946 113.628 52.8367 113.558L39.4195 99.1727L41.5933 96.9988L57.1058 113.63ZM24.2202 89.8254C21.2241 86.8292 18.5963 83.1374 16.4903 78.9874L0.272435 61.5997C0.462927 63.6077 0.751028 65.5954 1.12949 67.5526L25.8223 94.0266C25.9076 92.5169 25.3736 90.9787 24.2202 89.8254ZM24.6299 97.146L2.58375 73.5097C3.33888 76.061 4.24608 78.5371 5.28736 80.9127L22.0897 98.927C22.8683 98.665 23.5999 98.2239 24.2202 97.6036C24.3668 97.457 24.5033 97.3042 24.6299 97.146ZM17.5568 98.465L12.1355 92.6527C13.4892 94.4341 14.9295 96.091 16.442 97.6036C16.7835 97.945 17.1586 98.2321 17.5568 98.465ZM35.5104 104.413L42.6405 112.058C43.6613 112.332 44.8065 112.585 46.0488 112.804C46.7768 112.932 47.5486 113.051 48.3602 113.156L37.2971 101.295L37.0214 101.571C36.2149 102.377 35.7112 103.372 35.5104 104.413ZM11.8338 65.0927C12.2134 67.1783 12.719 69.2239 13.3384 71.2103L0.00914054 56.9196C-0.0164689 55.4542 0.0115201 53.9824 0.0958197 52.508L11.8338 65.0927ZM11.1681 59.981C11.0465 58.4374 10.9958 56.8808 11.0206 55.3184L1.08862 44.6701C0.835236 45.9463 0.627787 47.2255 0.464508 48.5054L11.1681 59.981ZM55.5194 98.6291L48.012 90.5802L50.1858 88.4064L57.6932 96.4553L55.5194 98.6291ZM28.0689 69.1986H32.2703L19.1033 55.0818L19.1266 59.6113L28.0689 69.1986ZM11.2648 51.1824C11.3987 49.8824 11.5873 48.5827 11.8333 47.2875L2.93815 37.7507C2.55556 38.8784 2.21256 40.0123 1.90785 41.1505L11.2648 51.1824ZM23.9228 69.1513L19.1584 64.0433C19.3216 66.6797 21.3407 68.8112 23.9228 69.1513ZM52.3082 86.284L59.8156 94.3329L62.245 91.9035L54.7376 83.8545L52.3082 86.284ZM41.0677 69.1986H36.3723L19.0805 50.6595L19.0544 45.5974L30.1157 57.4566L30.1195 58.1986H30.8078L41.0677 69.1986ZM13.8584 40.0267C13.3967 41.2624 12.9947 42.5098 12.6498 43.7649L4.11298 34.6124C4.58055 33.473 5.0907 32.3418 5.64479 31.2206L13.8584 40.0267ZM56.86 81.7322L64.3674 89.7811L66.5412 87.6073L59.0338 79.5583L56.86 81.7322ZM45.1697 69.1986L34.9098 58.1986H39.1112L49.3711 69.1986H45.1697ZM30.0929 53.0343L30.0695 48.5048L19.0082 36.6456L19.0316 41.1751L30.0929 53.0343ZM15.1269 36.9888C15.5812 36.0076 16.0757 35.0362 16.6119 34.0764L8.79504 25.6957C8.2097 26.5948 7.65626 27.503 7.13392 28.4192L15.1269 36.9888ZM68.1018 66.5482C68.2446 66.3122 68.3709 66.0636 68.4786 65.8034C68.9739 64.6078 69.0218 63.3071 68.6655 62.1186L51.7257 43.9569L49.1706 43.9437C48.5251 43.9404 47.8975 44.05 47.3106 44.2574L68.1018 66.5482ZM45.0525 41.8364L47.4819 39.407L39.9745 31.3581L39.4047 31.9279L28.3361 20.8593C28.2682 20.7913 28.1988 20.7255 28.128 20.6617C28.4901 20.3757 28.8538 20.0973 29.2188 19.8265L21.6733 11.7368C20.7828 12.4304 19.8993 13.1612 19.0244 13.9308L45.0525 41.8364ZM70.3789 55.0532L66.1571 55.0314L55.8475 43.9781L60.0692 43.9999L70.3789 55.0532ZM51.7782 35.1108L49.6043 37.2846L42.0969 29.2357L44.2708 27.0618L51.7782 35.1108ZM34.4185 16.4989C33.5128 16.9932 32.6102 17.5271 31.7132 18.103L24.1045 9.94548C24.9692 9.34366 25.839 8.77465 26.7125 8.23705L34.4185 16.4989ZM43.9798 100.935C43.9106 100.902 43.9233 100.903 43.993 100.941L43.9798 100.935Z" fill="url(#paint0_linear)"/>
<defs>
<linearGradient id="paint0_linear" x1="56.6359" y1="0" x2="56.6359" y2="113.639" gradientUnits="userSpaceOnUse">
<stop offset="0.191945" stop-color="#0272A2"/>
<stop offset="0.805939" stop-color="#DD0D25"/>
</linearGradient>
</defs>
</svg>
