<svg width="100" height="100" viewBox="0 0 100 100" fill="none" xmlns="http://www.w3.org/2000/svg">
<path d="M49.5814 28.0099C48.5965 28.1 47.7195 28.8179 47.485 29.8556L46.1908 35.5614L39.8652 42.5887C39.0929 43.445 38.6667 44.5578 38.6667 45.7104V67.2528C38.6667 69.8311 40.755 71.9194 43.3333 71.9194H62.0729C63.8019 71.9194 65.3673 70.9014 66.0697 69.3218L73.0742 53.5581C73.4639 52.6854 73.6667 51.7394 73.6667 50.7827V48.5861C73.6667 46.0194 71.5667 43.9194 69 43.9194H52.6667C52.6667 43.9194 55 38.3878 55 34.2671C55 30.5034 52.579 28.8562 50.584 28.1375C50.2509 28.0168 49.9097 27.9799 49.5814 28.0099V28.0099ZM30.5 43.9194C28.568 43.9194 27 45.4874 27 47.4194V68.4194C27 70.3514 28.568 71.9194 30.5 71.9194C32.432 71.9194 34 70.3514 34 68.4194V47.4194C34 45.4874 32.432 43.9194 30.5 43.9194Z" fill="white"/>
</svg>
