<svg width="100" height="100" viewBox="0 0 100 100" fill="none" xmlns="http://www.w3.org/2000/svg">
<mask id="path-1-inside-1" fill="white">
<path fill-rule="evenodd" clip-rule="evenodd" d="M51.2244 22.1522C50.9 21.9493 50.4882 21.9493 50.1638 22.1522L22.4715 39.4727C21.6198 40.0054 21.9973 41.3205 23.0018 41.3205H27.6941V71.8205C27.6941 72.3728 28.1418 72.8205 28.6941 72.8205H72.6941C73.2464 72.8205 73.6941 72.3728 73.6941 71.8205V41.3205H78.3864C79.3909 41.3205 79.7683 40.0054 78.9167 39.4727L51.2244 22.1522Z"/>
</mask>
<path d="M50.1638 22.1522L51.2244 23.8478L51.2244 23.8478L50.1638 22.1522ZM51.2244 22.1522L50.1638 23.8478L50.1638 23.8478L51.2244 22.1522ZM22.4715 39.4727L21.4109 37.777L21.4109 37.777L22.4715 39.4727ZM27.6941 41.3205H29.6941V39.3205H27.6941V41.3205ZM73.6941 41.3205V39.3205H71.6941V41.3205H73.6941ZM78.9167 39.4727L77.8561 41.1683L77.8561 41.1683L78.9167 39.4727ZM51.2244 23.8478C50.9 24.0507 50.4882 24.0507 50.1638 23.8478L52.2849 20.4565C51.3117 19.8478 50.0765 19.8478 49.1032 20.4565L51.2244 23.8478ZM23.5321 41.1683L51.2244 23.8478L49.1032 20.4565L21.4109 37.777L23.5321 41.1683ZM23.0018 39.3205C24.0063 39.3205 24.3837 40.6357 23.5321 41.1683L21.4109 37.777C18.856 39.3751 19.9882 43.3205 23.0018 43.3205V39.3205ZM27.6941 39.3205H23.0018V43.3205H27.6941V39.3205ZM29.6941 71.8205V41.3205H25.6941V71.8205H29.6941ZM28.6941 70.8205C29.2464 70.8205 29.6941 71.2682 29.6941 71.8205H25.6941C25.6941 73.4774 27.0372 74.8205 28.6941 74.8205V70.8205ZM72.6941 70.8205H28.6941V74.8205H72.6941V70.8205ZM71.6941 71.8205C71.6941 71.2682 72.1418 70.8205 72.6941 70.8205V74.8205C74.3509 74.8205 75.6941 73.4774 75.6941 71.8205H71.6941ZM71.6941 41.3205V71.8205H75.6941V41.3205H71.6941ZM78.3864 39.3205H73.6941V43.3205H78.3864V39.3205ZM77.8561 41.1683C77.0044 40.6356 77.3819 39.3205 78.3864 39.3205V43.3205C81.3999 43.3205 82.5322 39.3751 79.9772 37.777L77.8561 41.1683ZM50.1638 23.8478L77.8561 41.1683L79.9772 37.777L52.2849 20.4565L50.1638 23.8478Z" fill="white" mask="url(#path-1-inside-1)"/>
<path fill-rule="evenodd" clip-rule="evenodd" d="M50.8429 45.7858C50.6574 45.6313 50.3881 45.6313 50.2026 45.7858L35.9951 57.6268C35.6359 57.9262 35.8476 58.5109 36.3152 58.5109H39.0228V78.9977C39.0228 79.2738 39.2466 79.4977 39.5228 79.4977H61.5228C61.7989 79.4977 62.0228 79.2738 62.0228 78.9977V58.5109H64.7303C65.198 58.5109 65.4097 57.9262 65.0504 57.6268L50.8429 45.7858Z" fill="#474747"/>
<rect x="39.0227" y="57.5117" width="23" height="21.9862" rx="0.5" fill="white"/>
<path d="M50.2026 45.7858C50.388 45.6313 50.6574 45.6313 50.8428 45.7858L65.0504 57.6268C65.4096 57.9262 65.1979 58.5109 64.7303 58.5109H36.3152C35.8475 58.5109 35.6358 57.9262 35.995 57.6268L50.2026 45.7858Z" fill="white"/>
</svg>
