<svg width="100" height="100" viewBox="0 0 100 100" fill="none" xmlns="http://www.w3.org/2000/svg">
<mask id="path-1-inside-1" fill="white">
<path fill-rule="evenodd" clip-rule="evenodd" d="M50.2244 29.1522C49.9 28.9493 49.4882 28.9493 49.1638 29.1522L21.4715 46.4727C20.6198 47.0054 20.9973 48.3205 22.0018 48.3205H26.6941V78.8205C26.6941 79.3728 27.1418 79.8205 27.6941 79.8205H71.6941C72.2464 79.8205 72.6941 79.3728 72.6941 78.8205V48.3205H77.3864C78.3909 48.3205 78.7683 47.0054 77.9167 46.4727L50.2244 29.1522Z"/>
</mask>
<path d="M49.1638 29.1522L50.2244 30.8478L50.2244 30.8478L49.1638 29.1522ZM50.2244 29.1522L49.1638 30.8478L49.1638 30.8478L50.2244 29.1522ZM21.4715 46.4727L20.4109 44.777L20.4109 44.777L21.4715 46.4727ZM26.6941 48.3205H28.6941V46.3205H26.6941V48.3205ZM72.6941 48.3205V46.3205H70.6941V48.3205H72.6941ZM77.9167 46.4727L76.8561 48.1683L77.9167 46.4727ZM50.2244 30.8478C49.9 31.0507 49.4882 31.0507 49.1638 30.8478L51.2849 27.4565C50.3117 26.8478 49.0765 26.8478 48.1032 27.4565L50.2244 30.8478ZM22.5321 48.1683L50.2244 30.8478L48.1032 27.4565L20.4109 44.777L22.5321 48.1683ZM22.0018 46.3205C23.0063 46.3205 23.3837 47.6357 22.5321 48.1683L20.4109 44.777C17.856 46.3751 18.9882 50.3205 22.0018 50.3205V46.3205ZM26.6941 46.3205H22.0018V50.3205H26.6941V46.3205ZM28.6941 78.8205V48.3205H24.6941V78.8205H28.6941ZM27.6941 77.8205C28.2464 77.8205 28.6941 78.2682 28.6941 78.8205H24.6941C24.6941 80.4774 26.0372 81.8205 27.6941 81.8205V77.8205ZM71.6941 77.8205H27.6941V81.8205H71.6941V77.8205ZM70.6941 78.8205C70.6941 78.2682 71.1418 77.8205 71.6941 77.8205V81.8205C73.3509 81.8205 74.6941 80.4774 74.6941 78.8205H70.6941ZM70.6941 48.3205V78.8205H74.6941V48.3205H70.6941ZM77.3864 46.3205H72.6941V50.3205H77.3864V46.3205ZM76.8561 48.1683C76.0044 47.6356 76.3819 46.3205 77.3864 46.3205V50.3205C80.3999 50.3205 81.5322 46.3751 78.9772 44.777L76.8561 48.1683ZM49.1638 30.8478L76.8561 48.1683L78.9772 44.777L51.2849 27.4565L49.1638 30.8478Z" fill="white" mask="url(#path-1-inside-1)"/>
<path fill-rule="evenodd" clip-rule="evenodd" d="M49.8429 21.1159C49.6574 20.9614 49.3881 20.9614 49.2026 21.1159L34.9951 32.9569C34.6359 33.2562 34.8476 33.8409 35.3152 33.8409H38.0228V54.3277C38.0228 54.6039 38.2466 54.8277 38.5228 54.8277H60.5228C60.7989 54.8277 61.0228 54.6039 61.0228 54.3277V33.8409H63.7303C64.198 33.8409 64.4097 33.2562 64.0504 32.9569L49.8429 21.1159Z" fill="#474747"/>
<path d="M49.2026 21.2668C49.388 21.1122 49.6574 21.1122 49.8428 21.2668L64.0504 33.1077C64.4096 33.4071 64.1979 33.9918 63.7303 33.9918H35.3152C34.8475 33.9918 34.6358 33.4071 34.995 33.1077L49.2026 21.2668Z" fill="white"/>
<rect x="38.0227" y="32.9927" width="23" height="21.9862" rx="0.5" fill="white"/>
</svg>
