<svg width="100" height="100" viewBox="0 0 100 100" fill="none" xmlns="http://www.w3.org/2000/svg">
<mask id="path-1-inside-1" fill="white">
<path fill-rule="evenodd" clip-rule="evenodd" d="M50.2244 25.1522C49.9 24.9493 49.4882 24.9493 49.1638 25.1522L21.4715 42.4727C20.6198 43.0054 20.9973 44.3205 22.0018 44.3205H26.6941V74.8205C26.6941 75.3728 27.1418 75.8205 27.6941 75.8205H71.6941C72.2464 75.8205 72.6941 75.3728 72.6941 74.8205V44.3205H77.3864C78.3909 44.3205 78.7683 43.0054 77.9167 42.4727L50.2244 25.1522Z"/>
</mask>
<path d="M49.1638 25.1522L50.2244 26.8478L50.2244 26.8478L49.1638 25.1522ZM50.2244 25.1522L49.1638 26.8478L49.1638 26.8478L50.2244 25.1522ZM21.4715 42.4727L20.4109 40.777L20.4109 40.777L21.4715 42.4727ZM26.6941 44.3205H28.6941V42.3205H26.6941V44.3205ZM72.6941 44.3205V42.3205H70.6941V44.3205H72.6941ZM77.9167 42.4727L76.8561 44.1683L77.9167 42.4727ZM50.2244 26.8478C49.9 27.0507 49.4882 27.0507 49.1638 26.8478L51.2849 23.4565C50.3117 22.8478 49.0765 22.8478 48.1032 23.4565L50.2244 26.8478ZM22.5321 44.1683L50.2244 26.8478L48.1032 23.4565L20.4109 40.777L22.5321 44.1683ZM22.0018 42.3205C23.0063 42.3205 23.3837 43.6357 22.5321 44.1683L20.4109 40.777C17.856 42.3751 18.9882 46.3205 22.0018 46.3205V42.3205ZM26.6941 42.3205H22.0018V46.3205H26.6941V42.3205ZM28.6941 74.8205V44.3205H24.6941V74.8205H28.6941ZM27.6941 73.8205C28.2464 73.8205 28.6941 74.2682 28.6941 74.8205H24.6941C24.6941 76.4774 26.0372 77.8205 27.6941 77.8205V73.8205ZM71.6941 73.8205H27.6941V77.8205H71.6941V73.8205ZM70.6941 74.8205C70.6941 74.2682 71.1418 73.8205 71.6941 73.8205V77.8205C73.3509 77.8205 74.6941 76.4774 74.6941 74.8205H70.6941ZM70.6941 44.3205V74.8205H74.6941V44.3205H70.6941ZM77.3864 42.3205H72.6941V46.3205H77.3864V42.3205ZM76.8561 44.1683C76.0044 43.6356 76.3819 42.3205 77.3864 42.3205V46.3205C80.3999 46.3205 81.5322 42.3751 78.9772 40.777L76.8561 44.1683ZM49.1638 26.8478L76.8561 44.1683L78.9772 40.777L51.2849 23.4565L49.1638 26.8478Z" fill="white" mask="url(#path-1-inside-1)"/>
<path fill-rule="evenodd" clip-rule="evenodd" d="M49.3883 58.7117C49.5738 58.8663 49.8431 58.8663 50.0286 58.7117L64.2361 46.8708C64.5953 46.5714 64.3836 45.9867 63.916 45.9867L61.2084 45.9867L61.2084 32.7942C61.2084 32.6125 61.1099 32.4452 60.9511 32.357L49.747 26.1371C49.5937 26.0519 49.4069 26.0534 49.2549 26.1409L38.459 32.3556C38.304 32.4449 38.2084 32.6101 38.2084 32.789L38.2084 45.9867L35.5009 45.9867C35.0333 45.9867 34.8215 46.5714 35.1808 46.8708L49.3883 58.7117Z" fill="white"/>
</svg>
