<svg width="100" height="100" viewBox="0 0 100 100" fill="none" xmlns="http://www.w3.org/2000/svg">
<path d="M50.4296 78.4639L33.4823 62.9288C33.2756 62.7394 33.158 62.472 33.158 62.1917V37.0327C33.158 36.7444 33.2825 36.47 33.4995 36.2801L50.4469 21.4512C51.0934 20.8854 52.1054 21.3446 52.1054 22.2038V77.7268C52.1054 78.5969 51.071 79.0519 50.4296 78.4639Z" fill="white"/>
<path d="M18.5527 61.6316V37.5789C18.5527 37.0267 19.0004 36.5789 19.5527 36.5789H29C29.5523 36.5789 30 37.0267 30 37.5789V61.6316C30 62.1839 29.5523 62.6316 29 62.6316H19.5527C19.0004 62.6316 18.5527 62.1839 18.5527 61.6316Z" fill="white"/>
<path d="M60.7897 59.4739C60.5876 59.4739 60.3855 59.3966 60.2315 59.2426C59.9228 58.9339 59.9228 58.435 60.2315 58.1263L77.5999 40.7579C77.9086 40.4492 78.4076 40.4492 78.7162 40.7579C79.0249 41.0666 79.0249 41.5655 78.7162 41.8742L61.3478 59.2426C61.1939 59.3966 60.9918 59.4739 60.7897 59.4739Z" fill="white"/>
<path d="M78.1581 59.4739C77.956 59.4739 77.7539 59.3966 77.5999 59.2426L60.2315 41.8742C59.9228 41.5655 59.9228 41.0666 60.2315 40.7579C60.5402 40.4492 61.0391 40.4492 61.3478 40.7579L78.7162 58.1263C79.0249 58.435 79.0249 58.9339 78.7162 59.2426C78.5623 59.3966 78.3602 59.4739 78.1581 59.4739Z" fill="white"/>
</svg>
