<svg width="100" height="100" viewBox="0 0 100 100" fill="none" xmlns="http://www.w3.org/2000/svg">
<path d="M38.35 19.6001C38 19.6001 37.6313 19.7376 37.35 19.9501L21.05 32.4001H45L59.55 19.6001H38.35ZM64.4 19.6001L49.85 32.4001H68.95L81.8 19.6001H64.4ZM84 21.9501L71.2 34.6501V79.3501L83.65 63.8001C83.875 63.5126 84 63.1626 84 62.8001V21.9501ZM20 35.6001V78.8001C20 79.6876 20.7187 80.4001 21.6 80.4001H68V35.6001H20ZM37.6 42.0001H53.6C54.4875 42.0001 55.2 42.7188 55.2 43.6001C55.2 44.4813 54.4875 45.2001 53.6 45.2001H37.6C36.7187 45.2001 36 44.4813 36 43.6001C36 42.7188 36.7187 42.0001 37.6 42.0001Z" fill="white"/>
</svg>
