<svg width="100" height="100" viewBox="0 0 100 100" fill="none" xmlns="http://www.w3.org/2000/svg">
<path d="M46.2727 19.2413L51.8636 13.6551L46.2727 8.06885" stroke="white" stroke-width="2" stroke-linecap="round" stroke-linejoin="round"/>
<path d="M53.7273 91.8621L48.1364 86.2759L53.7273 80.6897" stroke="white" stroke-width="2" stroke-linecap="round" stroke-linejoin="round"/>
<path fill-rule="evenodd" clip-rule="evenodd" d="M48.1836 24.5365C46.943 25.1359 45.5781 27.7176 45.5781 29.465C45.5781 32.5715 41.2457 33.8058 38.2083 31.5647C36.2976 30.1549 34.8339 30.0237 32.7939 31.0782C30.0637 32.4904 29.5551 35.4598 31.5755 38.1983C34.0709 41.5809 32.7939 44.7675 28.6388 45.5277C24.6232 46.2623 22.9699 49.1084 24.6601 52.377C25.3872 53.7838 27.2562 54.9052 28.8732 54.9052C30.554 54.9052 32.2338 55.9862 32.8445 57.4608C33.4715 58.9743 33.5152 58.8318 31.0153 63.4178C30.0912 65.1121 30.4528 66.8486 32.0643 68.4604C33.6862 70.0824 36.468 70.0647 38.6996 68.4181C41.8593 66.087 45.2937 67.4491 45.9058 71.276C46.1132 72.5742 46.7524 73.8449 47.6491 74.7417C48.8906 75.9829 49.3191 76.1234 51.1286 75.8807C53.7292 75.5318 55.4046 73.7437 55.4046 71.3167C55.4046 67.5597 59.4531 65.9676 62.7744 68.4181C64.6852 69.8279 66.1488 69.9591 68.1888 68.9046C70.9191 67.4923 71.4276 64.5229 69.4073 61.7845C67.9318 59.7841 67.7967 57.253 69.0958 55.9538C69.6004 55.4491 71.0281 54.884 72.2687 54.6983C74.9238 54.2998 77.0228 52.2217 77.0228 49.9914C77.0228 47.7802 74.9224 45.6825 72.3164 45.2918C68.0709 44.655 66.6372 41.8492 68.8727 38.554C70.6022 36.0057 70.8557 34.6441 69.9335 32.8604C68.4679 30.0261 65.1333 29.4615 62.2831 31.5647C59.0856 33.9238 55.8822 32.5381 55.2395 28.5166C54.6755 24.9905 51.247 23.0559 48.1836 24.5365ZM53.9208 43.973C56.5233 45.2805 58.0007 47.7905 57.7128 50.4159C56.9655 57.2363 48.0903 59.2156 44.1936 53.431C41.3125 49.1546 45.0003 43.1135 50.4914 43.1135C51.4372 43.1135 52.9804 43.5003 53.9208 43.973Z" fill="white"/>
<path d="M86 50C86 69.8823 69.8823 86 50 86M14 50C14 30.1178 30.1178 14 50 14" stroke="white" stroke-width="2" stroke-linecap="round"/>
</svg>
