<svg width="100" height="100" viewBox="0 0 100 100" fill="none" xmlns="http://www.w3.org/2000/svg">
<path d="M18.52 69V36.6H23.04V51H24.72L30.52 36.6H35.04L28.64 52L35.84 69H31.32L24.76 53.2H23.04V69H18.52ZM38.8325 69V36.6H56.6725V69H52.1525V39.84H43.3525V69H38.8325ZM59.6431 74.88V65.76H61.1231C61.5765 65.3867 62.0165 64.9333 62.4431 64.4C62.8965 63.8667 63.3098 63.1733 63.6831 62.32C64.0831 61.44 64.4431 60.32 64.7631 58.96C65.0831 57.5733 65.3631 55.84 65.6031 53.76C65.8698 51.68 66.0698 49.16 66.2031 46.2L66.7231 36.6H80.2831V65.76H83.4031V74.88H79.9231L79.5631 69H63.4831L63.1231 74.88H59.6431ZM65.3231 65.76H75.8031V39.96H70.5631L70.2431 47.28C70.1365 50.16 69.9631 52.5867 69.7231 54.56C69.5098 56.5067 69.2431 58.12 68.9231 59.4C68.6298 60.6533 68.2831 61.68 67.8831 62.48C67.5098 63.2533 67.0965 63.88 66.6431 64.36C66.2165 64.84 65.7765 65.3067 65.3231 65.76Z" fill="white"/>
</svg>
