<svg width="100" height="100" viewBox="0 0 100 100" fill="none" xmlns="http://www.w3.org/2000/svg">
<path d="M77.1999 40.4001H62.7999V11.6001C62.7999 10.9841 62.4463 10.4241 61.8927 10.1569C61.3391 9.89286 60.6815 9.96486 60.1983 10.3521C59.9695 10.5345 37.2783 28.7441 30.4895 33.8833C22.1168 40.2209 21.2 43.2209 21.2 48.1137V78.8C21.2 83.2113 24.7888 86.8 29.1999 86.8H77.1999C78.0831 86.8 78.7999 86.0832 78.7999 85.2V42.0001C78.7999 41.1169 78.0831 40.4001 77.1999 40.4001ZM46.6975 40.8337C48.4207 38.9105 50.9391 38.2321 52.3199 39.3169C53.7023 40.4033 53.4255 42.8433 51.7023 44.7665C49.9791 46.6897 47.4623 47.3681 46.0799 46.2817C44.6975 45.1953 44.9743 42.7569 46.6975 40.8337ZM32.4 78.8L62.0543 60.0704C62.5183 59.7777 62.7999 59.2673 62.7999 58.7185V43.6001H70.7999V66.4001C70.7999 67.1105 70.3311 67.7377 69.6479 67.9361L32.4 78.8Z" fill="white"/>
</svg>
