<svg width="100" height="100" viewBox="0 0 100 100" fill="none" xmlns="http://www.w3.org/2000/svg">
<path d="M48.9475 71.226L35.8724 59.2405C35.6879 59.0714 35.4468 58.9777 35.1966 58.9777H24.9941C24.4419 58.9777 23.9941 58.5299 23.9941 57.9777V39.301C23.9941 38.7487 24.4419 38.301 24.9941 38.301H35.2099C35.4521 38.301 35.6861 38.213 35.8684 38.0535L48.9647 26.5943C49.6113 26.0285 50.6232 26.4877 50.6232 27.3468V70.4889C50.6232 71.359 49.5889 71.814 48.9475 71.226Z" fill="white"/>
<path d="M35.2725 59.6042C35.0996 59.6042 34.9592 59.3746 34.9592 59.0916V37.5605C34.9592 37.2775 35.0996 37.0479 35.2725 37.0479C35.4454 37.0479 35.5858 37.2775 35.5858 37.5605V59.0916C35.5858 59.3746 35.4454 59.6042 35.2725 59.6042Z" fill="#0272A2"/>
<path d="M58.2412 32.2856C60.9126 36.8245 62.4448 42.1142 62.4448 47.7618C62.4448 53.4094 60.9126 58.6992 58.2412 63.238" stroke="white" stroke-width="3" stroke-linecap="round"/>
<path d="M66.4126 22.7617C70.9519 30.0937 73.5555 38.6387 73.5555 47.7617C73.5555 56.8848 70.9519 65.4297 66.4126 72.7617" stroke="white" stroke-width="3" stroke-linecap="round"/>
</svg>
